<?xml version="1.0" encoding="UTF-8"?>
<svg width="200" height="200" viewBox="0 0 200 200" xmlns="http://www.w3.org/2000/svg">
  <defs>
    <!-- Enhanced noise filter -->
    <filter id="noise" x="-50%" y="-50%" width="200%" height="200%">
      <feTurbulence type="fractalNoise" baseFrequency="0.5" numOctaves="5" result="noise"/>
      <feColorMatrix type="saturate" values="0"/>
      <feBlend in="SourceGraphic" in2="noise" mode="multiply"/>
    </filter>
    
    <!-- Texture overlay -->
    <filter id="paper-texture">
      <feTurbulence type="turbulence" baseFrequency="0.1" numOctaves="2"/>
      <feColorMatrix values="0 0 0 0 0   0 0 0 0 0  0 0 0 0 0  0 0 0 0.1 0"/>
    </filter>
    
    <!-- Paper texture pattern -->
    <pattern id="paper-pattern" x="0" y="0" width="200" height="200" patternUnits="userSpaceOnUse">
      <!-- Base layer -->
      <rect x="0" y="0" width="200" height="200" fill="#f5e6d3"/>
      
      <!-- Texture layers -->
      <rect x="0" y="0" width="200" height="200" fill="#8b7355" opacity="0.03" filter="url(#noise)"/>
      <rect x="0" y="0" width="200" height="200" fill="#6b5544" opacity="0.02" filter="url(#paper-texture)"/>
      
      <!-- Subtle grid -->
      <g opacity="0.04">
        <line x1="0" y1="40" x2="200" y2="40" stroke="#4a3728" stroke-width="0.5"/>
        <line x1="0" y1="80" x2="200" y2="80" stroke="#4a3728" stroke-width="0.5"/>
        <line x1="0" y1="120" x2="200" y2="120" stroke="#4a3728" stroke-width="0.5"/>
        <line x1="0" y1="160" x2="200" y2="160" stroke="#4a3728" stroke-width="0.5"/>
        <line x1="40" y1="0" x2="40" y2="200" stroke="#4a3728" stroke-width="0.5"/>
        <line x1="80" y1="0" x2="80" y2="200" stroke="#4a3728" stroke-width="0.5"/>
        <line x1="120" y1="0" x2="120" y2="200" stroke="#4a3728" stroke-width="0.5"/>
        <line x1="160" y1="0" x2="160" y2="200" stroke="#4a3728" stroke-width="0.5"/>
      </g>
      
      <!-- Aged marks -->
      <g opacity="0.03">
        <circle cx="30" cy="40" r="25" fill="#6b5544"/>
        <circle cx="170" cy="160" r="30" fill="#6b5544"/>
        <circle cx="100" cy="90" r="20" fill="#6b5544"/>
        <path d="M160,20 Q180,40 160,60" stroke="#4a3728" fill="none" stroke-width="2"/>
        <path d="M40,140 Q60,160 40,180" stroke="#4a3728" fill="none" stroke-width="2"/>
      </g>
      
      <!-- Decorative corner flourishes -->
      <g opacity="0.05">
        <path d="M10,10 Q30,10 30,30" stroke="#4a3728" fill="none" stroke-width="1"/>
        <path d="M190,10 Q170,10 170,30" stroke="#4a3728" fill="none" stroke-width="1"/>
        <path d="M10,190 Q30,190 30,170" stroke="#4a3728" fill="none" stroke-width="1"/>
        <path d="M190,190 Q170,190 170,170" stroke="#4a3728" fill="none" stroke-width="1"/>
      </g>
    </pattern>
  </defs>
  
  <!-- Apply the pattern -->
  <rect x="0" y="0" width="200" height="200" fill="url(#paper-pattern)"/>
</svg> 